<svg id="Group_2" data-name="Group 2" xmlns="http://www.w3.org/2000/svg" xmlns:xlink="http://www.w3.org/1999/xlink" width="226.02" height="61.862" viewBox="0 0 226.02 61.862">
  <defs>
    <clipPath id="clip-path">
      <rect id="Rectangle_2" data-name="Rectangle 2" width="226.02" height="61.862" fill="none"/>
    </clipPath>
  </defs>
  <g id="Group_1" data-name="Group 1" clip-path="url(#clip-path)">
    <path id="Path_1" data-name="Path 1" d="M587.144,55.113c-.135-.3-1.816-1.754-1.816-1.994V26c-1.206.107-2.474.191-3.734.182-1.055-.007-3.105-.376-3.977-.009-.163.069-.359.057-.423.279-.329.969,2.6,2.878,2.93,3.8L580.132,50c-.288,2.424-4.167,2.1-4.112-.4.085-5.2.312-10.446-.05-15.634h-7.538c-.106,0-.282.794-.78.52V33.8h-8.924a9.441,9.441,0,0,0-2.109.837,7.582,7.582,0,0,0-3.871,5.4c-.806-1-1.142-2.1-1.989-3.123-4.2-5.081-10.939-3.823-13.634,1.967a22.635,22.635,0,0,0-.927,2.885c-.061.184-.2.7-.43.7V39.776a13,13,0,0,0-.471-2.3,4.9,4.9,0,0,0-9.319-.555l-.447-.111c-1.154-3.5-6.292-3.98-8.21-.925-.293.464-.1,1.125-.612,1.031l-.522-2.771h-7.278c-.17,1.759,2.2,2.6,2.946,4.072V55.8c-.409.083-.279-.05-.39-.224-2.932-4.592-1.482-9.959-2.235-15.088-.8-5.452-5.178-8.694-10.113-5.138l-.258-1.211h-3.292v6.411c2.752-1.275,7.384-3.117,8.491,1.038-6.011-2.313-10.728,2.031-10.222,8.229.47,5.732,7.1,9.4,11.348,4.767l.607,1.735h13.516c.315-1.2-2.079-2.494-2.249-3.384.293-3.622-.407-7.891,0-11.432.147-1.3,1.565-2.594,2.84-1.8a3.69,3.69,0,0,1,.8,1.281V56.325h8.318c.208-1.844-1.908-2.41-2.679-3.819l-.1-.418c.4-3.27-.515-7.765.05-10.886.354-1.943,3.537-2.481,3.934-.2l.012,15.325H537.5c.468-1.062-1.733-2.667-1.733-3.379V48.094c0-.029.232-.274.345-.26,1.1,8.943,12.138,12.412,16.37,3.459l1.3-4.325a6.094,6.094,0,0,0,4.592,4.159c2.029.22,4.313-.572,6.062.87,3.247,2.677,1.359,9.759-3.324,7.831a4.378,4.378,0,0,1-2.13-3.069V52.686h-5.372c-.924,5.237.487,10.991,6.063,12.736,7.657,2.4,13.715-4.732,11.05-12.088a9.377,9.377,0,0,0-4.81-5.328c2.885-2.871,2.951-8.3-.52-10.74l2.251-1.908c.191,1.806,2.381,2.6,3.258,4.107.515,4.124-1.435,14.043,2.752,16.483a4.642,4.642,0,0,0,5.431-.4l1.036-1.128,0,1.906h7.1a3.137,3.137,0,0,0-.09-1.211m-86.079-2.989c-2.953-.548-3-6.141.348-6.677,4.077-.652,4.485,7.572-.348,6.677m45.608-2.483c-2.975,2.085-6.067-.679-6.379-3.823-.23-2.319.929-5.977,3.573-6.434,5.566-.963,6.751,7.5,2.805,10.257m12.438-2.71c-2.877-.645-3.176-7.164.348-7.895,4.847-1.007,5.209,9.139-.348,7.895" transform="translate(-408.231 -21.495)" fill="#0044a3"/>
    <path id="Path_2" data-name="Path 2" d="M32.235,28.072h3.032l.26-.26V0H0V28.072H4.249l.6-2.6a5.645,5.645,0,0,0,1.319,2.582c.289.374,1.232,1.807,1.322,1.884a4.781,4.781,0,0,1,.963.338c.383.262.548.714.9,1-.383.182-.918-.142-1.3-.256-.244-.073-.49-.371-.428.08l1.648,1.3-.435.262,1.211.957-.865.256c.639.7,1.709.641,2.074,1.561l-2.078.52-.343.258.522.09c-.5,1.253,1.821,1.627,2.585,2.09.544.329.97,1.223,1.327,1.443.527.322,1.1.081,1.7.728.083.09,1.05,1.442,1.08,1.534.133.411-.109.768-.078.851.009.019.265.005.367.239a3.214,3.214,0,0,1,.295,1.516,18.3,18.3,0,0,1-4.673-.783c-2.838-1.036-6.538-4.271-7.59-7.139C4.225,36.377,4.137,35,3.73,35H0V61.862H35.527V35a37.475,37.475,0,0,1-3.892-.18.669.669,0,0,1-.529-.34c-.274-.565-.019-2.873-.088-3.724-.295-3.6-2.357-7.453-5.679-9.049-1.547-.743-3.265-.7-3.675-2.823a11.068,11.068,0,0,1,7.6,4.621c.847,1.19,2.282,4.28,2.282,5.689v3.119c0,.166-.523.716.172.6a30.126,30.126,0,0,0-.224-6.1,11.928,11.928,0,0,0-7.283-8.659,28.542,28.542,0,0,1-3.493-1.359,5.634,5.634,0,0,1-.606-2.249c6.552,1.757,11.8,6.391,12.128,13.516M22.305,43.631c-1.963-8.988-15-18.484-15.377-26.9a12.992,12.992,0,0,1,.788-4.6c.047-.175.248-.549-.087-.52a12.9,12.9,0,0,0,.14,11.206c2.9,6.221,12.891,17.474,12.513,23.891-.019.308-.678,3.485-1.043,3.2-.671-1.745-.894-3.63-1.438-5.408C14.813,34.745,3.293,25.142,5.461,14.381,7.185,5.819,17.757.419,24.783,6.756c-3.992-1.424-8.188-.671-11.007,2.6-6.808,7.9,3.069,15.576,7.706,21.411,3.989,5.017,8.435,10.529,7.032,17.413s-8.1,8.732-14.308,7.365a9.436,9.436,0,0,1-4.5-2.343c6.4,1.489,14.289-1.823,12.6-9.569M34.574,58.4l.232.286a2.265,2.265,0,0,1,.036.483c.036.431.085,1.043-.269,1.31H2.777L2.6,58.4ZM29.613,28.006c.12.3.716,2.069.716,2.232V33.1l-4.505-6.675c-.064-.222.035-.341.256-.255,1.431.556,3.048,3.551,3.384,5.022.307.042.17-.392.151-.584a7.85,7.85,0,0,0-2.577-4.7c-.652-.582-2.131-1.244-2.507-1.651-.352-.381-.736-1.5-1.135-1.982,2.928.6,5.143,3.053,6.217,5.737M18.549,14.812c.308,4.53,6.715,12.126,9.146,16.325,3.672,6.337,5.86,12.934,1.417,19.633-.322.04-.128-.348-.094-.529,1.547-8.283-.418-12.05-5.134-18.586-4.214-5.843-13.1-12.586-9.073-20.574,1.785-3.54,6.682-5.361,9.8-2.419-3.83-.27-6.321,2.346-6.061,6.15" transform="translate(-0.003)" fill="#0044a3"/>
    <path id="Path_3" data-name="Path 3" d="M278.768,25.042V21.663c0-8.905-11.979-11.12-15.6-3.3l-1.206,4.6c-.437-3.348-3.5-6.193-6.469-7.482-1.923-.833-6.623-1.518-6.881-4.038-.269-2.615,2.369-3.63,4.578-3.362,2.982.362,5.514,3.552,7.728,5.268.175.135.22.331.522.258V2.341L258.263,4.05C252.907-.194,244.4,1.614,242.775,8.716a10.224,10.224,0,0,0,6.318,12.294c2.173.885,6.458,1.374,6.933,4.157.577,3.389-1.988,4.968-5.069,4.722-3.693-.295-5.588-2.949-8.233-5.022V37.345c1.385-.3,2.161-1.852,3.376-2.551,6.172,3.464,14.733,1.722,16.207-5.94.352-.047.282-.031.386.217.255.6.3,1.49.567,2.206,1.416,3.757,5.491,6.344,9.489,4.989.908-.307,1.537-.974,2.377-1.346l.435,1.386h2.513l-.175-9.7c-1.412.627-2.306,2.033-3.774,2.722-2.123.995-4.913.88-6.351-1.175-.513-.731-1.166-2.372-.53-3.107Zm-4.334-3.812c-2.241-.629-4.788.437-6.943-.281.672-4.062,6.912-4.048,6.943.281" transform="translate(-200.443 -1.475)" fill="#0044a3"/>
    <path id="Path_4" data-name="Path 4" d="M1112.831,89.791c-.4-4.336.305-9.285.017-13.688.229-1.445,3.275-2.447,2.764-4.254h-10.83c-.1,0-.35.6-.523.693-.263.066-.74-.716-1.246-.83a3.378,3.378,0,0,0-3.282,1.064l-1.185,1.845-.781-2.773h-6.931c-.135,1.726,2.1,2.719,2.946,4.072V93.25c0,.031-.279.308-.345.258a24.844,24.844,0,0,1-1.515-3.772c-.937-4.741.833-12.918-2.908-16.5a5.8,5.8,0,0,0-8.054,0l-.175-1.386h-3.119V78l.4.236c2.492-1.412,7.328-2.958,8.087,1.062-8.241-3.183-13.14,6.888-7.791,12.906a6.381,6.381,0,0,0,9.09.437l.435,1.388h13.863c.038-1.166-2.44-2.738-2.6-3.558l.007-11.421a2.072,2.072,0,0,1,3.1-1.39c.253.159,2.166,2.27,2.433,1.984.291-1.5.317-3.06.542-4.569.12-.808.033-1.26,1.01-.879a2.646,2.646,0,0,1,1.4,1.716c-.406,4.483.515,9.848,0,14.221-.149,1.262-2.157,2.183-1.563,3.9h9.531c-.047-1.873-2.613-2.395-2.781-4.239m-27.077-.5a5.39,5.39,0,0,1-1.113.535c-5.214,1.036-4.916-8,.305-6.637,2.13.555,2.4,4.746.807,6.1" transform="translate(-889.65 -59.2)" fill="#0044a3"/>
    <path id="Path_5" data-name="Path 5" d="M1031.225,24V51.288c.83,1.175,2.5,1.925,2.773,3.379h-8.144V28.241L1023,25.2c-.393-.425.378-1.2.69-1.2Z" transform="translate(-845.638 -19.838)" fill="#0044a3"/>
    <path id="Path_6" data-name="Path 6" d="M449.082,26a5.523,5.523,0,0,1,.182.945c.541,6.871.1,15.69.006,22.709-.016,1.2-.2,2.4-.19,3.6.964.955,2.463,1.809,2.948,3.068h-9.7c-.293-1.575,1.137-2.564,1.567-3.891l0-22.018c-.151-1.28-2.6-2.69-2.963-3.979L441.2,26Z" transform="translate(-364.519 -21.491)" fill="#0044a3"/>
    <path id="Path_7" data-name="Path 7" d="M854.516,52.249H841V50h13.256l.247.282a2.88,2.88,0,0,0,.013,1.971" transform="translate(-695.268 -41.333)" fill="#0044a3"/>
    <path id="Path_8" data-name="Path 8" d="M380.6,300.993l.7,4.5,2.843-4.346,1.659-.158-1.236,6.561-1.19.021,1.038-5.023c-.647.456-2.93,4.97-3.221,5.036a1.046,1.046,0,0,1-.6-.085c-.451-.325-.424-3.356-.507-4-.04-.314.059-.282-.346-.256l-.674,4.232-1.059.1,1.038-6.585Z" transform="translate(-312.501 -248.833)" fill="#0044a3"/>
    <path id="Path_9" data-name="Path 9" d="M664.576,301.021l2.016,4.484.8-4.488,1.2-.019c-.432,1.893-.52,4.33-1.048,6.144-.143.492-.417.563-.912.411-.613-.188-2.01-3.794-2.367-4.568-.079-.172-.1-.407-.351-.427l-.774,4.859-1.134.165,1.048-6.575Z" transform="translate(-547.286 -248.84)" fill="#0044a3"/>
    <path id="Path_10" data-name="Path 10" d="M255.661,300.167c-4.968.442-4.755,8,.457,6.531,3.888-1.1,3.765-6.905-.457-6.531m-1.229,5.637c-2.019-.457-1.3-4.261,1.048-4.6,3.585-.522,2.653,5.443-1.048,4.6" transform="translate(-208.389 -248.139)" fill="#0044a3"/>
    <path id="Path_11" data-name="Path 11" d="M334.854,300.132c-4.339.35-5.074,7.37-.094,6.677,4.533-.631,4.523-7.032.094-6.677m1.364,4.93c-1,1.109-3.386,1.178-3.71-.587-.563-3.058,3.592-4.549,4.349-2.1a3.459,3.459,0,0,1-.639,2.684" transform="translate(-273.896 -248.112)" fill="#0044a3"/>
    <path id="Path_12" data-name="Path 12" d="M432.313,300.666c-3.584.726-4.072,6.933.48,6.548,4.521-.381,5.037-7.664-.48-6.548m1.769,5.062c-2.617,1.832-4.407-1.419-2.7-3.308,2.618-2.9,5.431,1.395,2.7,3.308" transform="translate(-355.076 -248.469)" fill="#0044a3"/>
    <path id="Path_13" data-name="Path 13" d="M1056.663,301.458c-.8-.936-3.483-.451-4.627-.567l-1.043,6.583,1.017-.023.65-2.587,1.461.088c.7,1.156.573,2.928,2.417,2.52l-1.2-2.669c1.161-.494,2.308-2.2,1.324-3.346m-3.935,2.549.364-2.234c4.169-.53,3.3,2.944-.364,2.234" transform="translate(-868.873 -248.731)" fill="#0044a3"/>
    <path id="Path_14" data-name="Path 14" d="M1185.02,301.04l-1.641.163L1180,307.616c1.885.426,1.39-.868,2.367-1.877l2.377-.038.471,1.9,1.367.017Zm-2.244,3.63,1.215-2.6.691,2.6Z" transform="translate(-975.528 -248.875)" fill="#0044a3"/>
    <path id="Path_15" data-name="Path 15" d="M861.545,301l-.183,1.029-3.275.019-.352,1.467,2.942.084,0,1.04h-2.859l-.433,1.906h3.292l-.173,1.04H856L857.04,301Z" transform="translate(-707.669 -248.839)" fill="#0044a3"/>
    <path id="Path_16" data-name="Path 16" d="M1098.545,301l-.289,1.047-2.925-.138-.424,1.864c.878-.258,1.791.146,2.77-.174v1.04h-2.946l-.347,1.906h3.032c.037,0,.2-.259.258-.173l-.078,1.055c-.066.1-.559.158-.7.158H1093l1.213-6.585Z" transform="translate(-903.601 -248.838)" fill="#0044a3"/>
    <path id="Path_17" data-name="Path 17" d="M621.846,301.04l-1.525.021L617,307.616c1.52.341,1.587-.794,2.107-1.877l2.554-.012.371,1.882,1.206.007Zm-2.244,3.63,1.3-2.424.607,2.424Z" transform="translate(-510.086 -248.875)" fill="#0044a3"/>
    <path id="Path_18" data-name="Path 18" d="M709.657,301.13l-1.452.147-3.2,6.413c.308-.057.969.109,1.185-.028.087-.054.742-1.594.92-1.849l2.572-.028.366,1.887,1.194.017Zm-2.055,3.615a9.19,9.19,0,0,1,1.3-2.424l.433,2.424Z" transform="translate(-582.837 -248.949)" fill="#0044a3"/>
    <path id="Path_19" data-name="Path 19" d="M1011.68,301.01l-1.475.168-3.2,6.413c.307-.057.97.109,1.185-.028.087-.054.8-1.589.92-1.849l2.4-.026c.111,1.284-.071,2.2,1.561,1.9Zm-2.078,3.635,1.041-2.424.518,2.424Z" transform="translate(-832.506 -248.85)" fill="#0044a3"/>
    <path id="Path_20" data-name="Path 20" d="M581.488,302.521c.8.838,3.614.194,3.172,2.479-.45,2.327-4.3,2.466-5.641.772l.952-.75c.578,1,2.933,1.41,3.407.245.775-1.9-3.226-1.022-3.338-2.785-.154-2.422,4.126-3.128,5.207-1.213-.651.8-1.059.039-1.827-.073-.86-.125-2.919.291-1.932,1.325" transform="translate(-478.684 -248.156)" fill="#0044a3"/>
    <path id="Path_21" data-name="Path 21" d="M1245.092,301.34c-.942.691-1.347-.367-2.467-.3-.595.036-1.56.495-1.326,1.228.25.785,3.746.388,3.305,2.643-.455,2.331-4.437,2.6-5.569.675l.776-.569c.695,1.143,4.034,1.263,3.522-.433-.331-1.1-3.6-.433-3.257-2.795.246-1.7,4.5-2.406,5.017-.451" transform="translate(-1024.33 -248.147)" fill="#0044a3"/>
    <path id="Path_22" data-name="Path 22" d="M821.187,301.02l.976,5.178,2.77-5.029,1.475-.169-3.831,6.3c-.281.436-.9.287-1.349.26L820,301Z" transform="translate(-677.904 -248.839)" fill="#0044a3"/>
    <path id="Path_23" data-name="Path 23" d="M528.405,300.849a40.346,40.346,0,0,0,.844,4.621c.064.233-.109.478.282.4.352-.658,2.246-4.813,2.55-4.99.269-.157.994.028,1.351-.035-1.229,1.719-2.04,3.825-3.154,5.6-.557.885-.681,1.139-1.872.988-.01-2.1-1.137-4.336-1.379-6.335-.062-.508,1.044-.153,1.378-.249" transform="translate(-435.7 -248.689)" fill="#0044a3"/>
    <path id="Path_24" data-name="Path 24" d="M973.772,300.251a2.591,2.591,0,0,1,2.131.9.5.5,0,0,1-.444.791c-.315,0-.58-.5-.942-.621-1.888-.614-3.739,1.385-3.44,3.257.267,1.674,2.564,1.865,3.516.657l.607.768c-2.449,2.148-6.33.657-5.209-2.95a4.518,4.518,0,0,1,3.781-2.8" transform="translate(-801.743 -248.221)" fill="#0044a3"/>
    <path id="Path_25" data-name="Path 25" d="M1137.892,301v1.041l-2.245.008-.874,5.537h-1.214l.867-5.546H1132V301Z" transform="translate(-935.843 -248.839)" fill="#0044a3"/>
    <path id="Path_26" data-name="Path 26" d="M302.892,301v1.04h-2.426l-.866,5.546h-1.214l.867-5.545-2.252,0,.173-1.038Z" transform="translate(-245.536 -248.839)" fill="#0044a3"/>
    <path id="Path_27" data-name="Path 27" d="M479.895,301l-.183,1.029-2.408.02-.973,5.543-1.116-.007.867-5.544-2.079,0,.173-1.038Z" transform="translate(-391.867 -248.839)" fill="#0044a3"/>
    <path id="Path_28" data-name="Path 28" d="M921.714,301v1.04H919.2l-.233.287-.873,5.158-1.06.1.867-5.545h-1.906V301Z" transform="translate(-757.268 -248.839)" fill="#0044a3"/>
    <path id="Path_29" data-name="Path 29" d="M751.432,303.644c.593-.354,1.531-2.634,1.9-2.861.338-.207.989-.037,1.389-.082-1.454,2.125-3.187,3.833-3.217,6.587l-1.116,0,.341-2.85-1.726-3.734c1.772-.464,1.875,1.727,2.427,2.944" transform="translate(-619.215 -248.54)" fill="#0044a3"/>
    <rect id="Rectangle_1" data-name="Rectangle 1" width="4" height="2" transform="translate(0 29)" fill="#0044a3"/>
    <path id="Path_30" data-name="Path 30" d="M784.426,300.993l-1.038,6.585-1.387,0,1.039-6.584Z" transform="translate(-646.492 -248.834)" fill="#0044a3"/>
    <path id="Path_31" data-name="Path 31" d="M0,185.955l.162-2a11,11,0,0,1,3.631.116l.019,1.888Z" transform="translate(0 -151.992)" fill="#0044a3"/>
    <path id="Path_32" data-name="Path 32" d="M954.253,301l-1.068,6.3-.222.218-.962.062,1.057-6.566Z" transform="translate(-787.035 -248.843)" fill="#0044a3"/>
    <path id="Path_33" data-name="Path 33" d="M510.248,300.992l-1.229,6.566-1.024.018.866-6.587Z" transform="translate(-419.968 -248.833)" fill="#0044a3"/>
    <path id="Path_34" data-name="Path 34" d="M187.5,169.183c-1.477-1.88,1.321-2.367,2.662-1.881l.024,1.881Z" transform="translate(-154.664 -138.165)" fill="#0044a3"/>
    <path id="Path_35" data-name="Path 35" d="M189.95,184.6l0,2.08c-.89-.435-2.7.29-3.082-.989-.532-1.763,2.07-.985,3.085-1.091" transform="translate(-154.426 -152.547)" fill="#0044a3"/>
    <path id="Path_36" data-name="Path 36" d="M960.136,282.277a.823.823,0,0,1,.743-1.365c1.335.186.272,2.008-.743,1.365" transform="translate(-793.585 -232.225)" fill="#0044a3"/>
    <path id="Path_37" data-name="Path 37" d="M791.136,282.277a.823.823,0,0,1,.743-1.365c1.335.186.272,2.008-.743,1.365" transform="translate(-653.87 -232.225)" fill="#0044a3"/>
    <path id="Path_38" data-name="Path 38" d="M515.933,280.911c1.159-.345,1.447,1.025.444,1.323-1.113.331-1.416-1.034-.444-1.323" transform="translate(-426.047 -232.188)" fill="#0044a3"/>
    <path id="Path_39" data-name="Path 39" d="M1227.884,330.26c1.037,1.013-2.208,2.379-.924-.064l.357-.144a1.064,1.064,0,0,1,.567.208" transform="translate(-1014.095 -272.859)" fill="#0044a3"/>
    <path id="Path_40" data-name="Path 40" d="M1280.123,330.9c.427,1.19-1.154,2.067-1.229.782-.055-.941.453-.8,1.229-.782" transform="translate(-1057.28 -273.543)" fill="#0044a3"/>
    <path id="Path_41" data-name="Path 41" d="M15.173,339.075,15,337H46.971l.232.287a2.2,2.2,0,0,1,.036.484c.037.43.085,1.041-.269,1.308Z" transform="translate(-12.401 -278.6)" fill="#fff"/>
  </g>
</svg>
