<svg xmlns="http://www.w3.org/2000/svg" xmlns:xlink="http://www.w3.org/1999/xlink" width="213.5" height="119" viewBox="0 0 213.5 119">
  <defs>
    <clipPath id="clip-path">
      <rect id="Rectangle_32" data-name="Rectangle 32" width="56.829" height="56.829" transform="translate(0 0)" fill="#d6e1ea"/>
    </clipPath>
  </defs>
  <g id="Group_68" data-name="Group 68" transform="translate(-1200 -998)">
    <g id="Rectangle_3660" data-name="Rectangle 3660" transform="translate(1200 998)" fill="#fff" stroke="#e8ecee" stroke-width="1">
      <rect width="213.5" height="119" rx="10" stroke="none"/>
      <rect x="0.5" y="0.5" width="212.5" height="118" rx="9.5" fill="none"/>
    </g>
    <g id="Component_14_2" data-name="Component 14 – 2" transform="translate(1278 1029)">
      <g id="Group_63" data-name="Group 63" transform="translate(0 0)" clip-path="url(#clip-path)">
        <path id="Path_66" data-name="Path 66" d="M74.593,1450.512v2l-.046.041q-2.93.625-5.8,1.479a26.2,26.2,0,0,1-1.723-3.517H64.5a28.675,28.675,0,0,0,53.909,0l-2.563,0a26.887,26.887,0,0,1-1.883,3.756q-2.794-.86-5.648-1.506v-2.25h-2.638l-.015,1.7a78.782,78.782,0,0,0-28.488-.156l0-1.539H74.593Zm37.89,6.041a26.312,26.312,0,0,1-42.226-.225,71.754,71.754,0,0,1,42.187.2Z" transform="translate(-62.781 -1412.361)" fill="#d6e1ea" fill-rule="evenodd"/>
        <path id="Path_67" data-name="Path 67" d="M10.485,1093.973v6.24a1.474,1.474,0,0,1,1.381.879v2.327h2.585l.009-4.921,7.182-.025.7,2.242h2.388l.892-2.217,5.279-.011.945,2.228h2.388l.718-2.217h8.044l-.044,4.921h2.638v-2.327a1.472,1.472,0,0,1,1.381-.879v-6.24H42.994v1.679l-7.182-.017.516-1.662H33.9l-.58,1.679-1.2-.03-.671-1.65H29.007l.725,1.708-2.816.012.731-1.721H25.1l-.692,1.679H23.193l-.539-1.679H20.239l.527,1.679H14.46v-1.679Zm44.549,0a25.85,25.85,0,0,1-1.915,9.449l2.563,0a28.556,28.556,0,0,0,1.708-9.446Zm-53.261,9.446a28.564,28.564,0,0,1-1.708-9.447H2.42a26.222,26.222,0,0,0,1.873,9.447Z" transform="translate(-0.055 -1065.269)" fill="#d6e1ea" fill-rule="evenodd"/>
        <path id="Path_68" data-name="Path 68" d="M0,28.987q0-.162,0-.324a28.664,28.664,0,1,1,57.328,0q0,.162,0,.324H54.971q0-.162,0-.324a26.309,26.309,0,1,0-52.618,0q0,.163,0,.327Zm14.4,0V22.382H11.8v5.69a1.473,1.473,0,0,1-1.381.878v.036H14.4Zm8.194,0-.37-1.153c3.616-1.048,4.2-6.743,1.323-8.289,1.706-.536,3.607-7.681-2.687-7.681H15.994V28h3.873l.309.986Zm6.353,0-.679-1.6-.68,1.6H25.036L27.1,23.981h2.247l2.036,5.006Zm7.321,0,1.511-4.86H35.437l-1.16,3.562-.01-6.255H36.25a5.447,5.447,0,0,0,3.378-1.158,4.979,4.979,0,0,0,1.706-3.83c0-2.259-1.257-4.583-4.14-4.583H31.787V28l2.4-.022-.348,1.008h2.43Zm10.641,0v-.036a1.472,1.472,0,0,1-1.381-.878v-5.69H42.931v6.605h3.975Zm-28.485-10.6V14.231h1.4c1.377.043,2.847.1,2.847,1.463,0,3.12-2.778,2.583-3.686,2.69Zm15.838-4.153h1.377c1.7,0,3.261.28,3.261,2.13,0,1.958-1.712,2.612-3.025,2.612H34.259ZM19.12,25.577l-.45-1.449h2.339l.364,1.117A2.119,2.119,0,0,0,22.91,23.13c0-1.743-1.455-2.095-3.327-2.095H18.421v4.6h.645Z" transform="translate(0.009 -0.283)" fill="#d6e1ea" fill-rule="evenodd"/>
      </g>
    </g>
  </g>
</svg>
