<svg xmlns="http://www.w3.org/2000/svg" xmlns:xlink="http://www.w3.org/1999/xlink" width="213.5" height="119" viewBox="0 0 213.5 119">
  <defs>
    <clipPath id="clip-path">
      <rect id="Rectangle_31" data-name="Rectangle 31" width="129.164" height="20.904" fill="#d6e1ea"/>
    </clipPath>
  </defs>
  <g id="Group_66" data-name="Group 66" transform="translate(-1660 -998)">
    <g id="Rectangle_3660" data-name="Rectangle 3660" transform="translate(1660 998)" fill="#fff" stroke="#e8ecee" stroke-width="1">
      <rect width="213.5" height="119" rx="10" stroke="none"/>
      <rect x="0.5" y="0.5" width="212.5" height="118" rx="9.5" fill="none"/>
    </g>
    <g id="Component_16_2" data-name="Component 16 – 2" transform="translate(1702 1047)">
      <g id="Group_61" data-name="Group 61" clip-path="url(#clip-path)">
        <path id="Path_60" data-name="Path 60" d="M630.447,20.147c-3.929,0-7.126-2.64-7.126-5.886V5.886c0-3.246,3.2-5.886,7.126-5.886h13.137c3.929,0,7.126,2.641,7.126,5.886v8.375c0,3.246-3.2,5.886-7.126,5.886ZM629.226,4.842a.147.147,0,0,0-.147.147V15.146a.147.147,0,0,0,.147.147h15.488a.147.147,0,0,0,.147-.147V4.989a.147.147,0,0,0-.147-.147Z" transform="translate(-521.546)" fill="#d6e1ea"/>
        <path id="Path_61" data-name="Path 61" d="M291.552,20.149H275.185c-3.929,0-7.126-2.641-7.126-5.886V5.885c0-3.246,3.2-5.886,7.126-5.883h16.4a.451.451,0,0,1,.451.451v3.94a.451.451,0,0,1-.451.451h-17.6a.171.171,0,0,0-.171.171V15.124a.171.171,0,0,0,.171.171h17.6a.451.451,0,0,1,.451.451v.008l0,3.939v0a.45.45,0,0,1-.45.451Z" transform="translate(-224.291 -0.002)" fill="#d6e1ea"/>
        <path id="Path_62" data-name="Path 62" d="M470.988,20.149H454.62c-3.929,0-7.126-2.641-7.126-5.886V5.885c0-3.246,3.2-5.886,7.126-5.883h16.4a.451.451,0,0,1,.451.451v3.94a.451.451,0,0,1-.451.451h-17.6a.171.171,0,0,0-.171.171V15.124a.172.172,0,0,0,.171.171h17.6a.451.451,0,0,1,.451.451v.008l0,3.939v0a.45.45,0,0,1-.45.451Z" transform="translate(-374.428 -0.002)" fill="#d6e1ea"/>
        <path id="Path_63" data-name="Path 63" d="M336.07,52.606H321.428a.267.267,0,0,1-.266-.266V48.4a.267.267,0,0,1,.266-.266H336.07a.267.267,0,0,1,.266.266V52.34a.267.267,0,0,1-.266.266" transform="translate(-268.723 -40.278)" fill="#d6e1ea"/>
        <path id="Path_64" data-name="Path 64" d="M74.151,20.906A6.288,6.288,0,0,1,68.8,18.229l-.061-.1L58.538.6a.375.375,0,0,1,0-.378A.468.468,0,0,1,58.947,0h5.381a.466.466,0,0,1,.411.226L73.95,15.995a.27.27,0,0,0,.209.076.215.215,0,0,0,.214-.1l10-15.753a.469.469,0,0,1,.4-.21h5.465a.466.466,0,0,1,.411.226.373.373,0,0,1-.007.382L79.551,18.159a6.247,6.247,0,0,1-5.35,2.747Z" transform="translate(-48.938 -0.003)" fill="#d6e1ea"/>
        <path id="Path_65" data-name="Path 65" d="M5.356,20.149H.451A.453.453,0,0,1,0,19.7V.452A.453.453,0,0,1,.451,0h4.9a.453.453,0,0,1,.451.451V19.7a.453.453,0,0,1-.451.451" transform="translate(0 -0.001)" fill="#d6e1ea"/>
      </g>
    </g>
  </g>
</svg>
