<svg xmlns="http://www.w3.org/2000/svg" xmlns:xlink="http://www.w3.org/1999/xlink" width="213.5" height="119" viewBox="0 0 213.5 119">
  <defs>
    <clipPath id="clip-path">
      <rect id="Rectangle_25" data-name="Rectangle 25" width="88.817" height="49.139" fill="#d6e1ea"/>
    </clipPath>
  </defs>
  <g id="Group_72" data-name="Group 72" transform="translate(-280 -998)">
    <g id="Rectangle_3660" data-name="Rectangle 3660" transform="translate(280 998)" fill="#fff" stroke="#e8ecee" stroke-width="1">
      <rect width="213.5" height="119" rx="10" stroke="none"/>
      <rect x="0.5" y="0.5" width="212.5" height="118" rx="9.5" fill="none"/>
    </g>
    <g id="Component_10_1" data-name="Component 10 – 1" transform="translate(342 1033)">
      <g id="Group_49" data-name="Group 49" clip-path="url(#clip-path)">
        <path id="Path_33" data-name="Path 33" d="M65.095,35.614H58.169V49.138h6.984v-6.1l8.244,6.1h6.98V35.614H73.392V41.77ZM44.408,0A44.408,44.408,0,0,0,0,44.408a45,45,0,0,0,.249,4.731H4.9a39.789,39.789,0,1,1,79.3-4.731,40.29,40.29,0,0,1-.278,4.731h4.65a44.935,44.935,0,0,0,.249-4.731A44.409,44.409,0,0,0,44.408,0Zm3.727,35.614H40.709l-8.8,13.524h7.209l.978-1.513H48.75l.979,1.513h7.208ZM46.448,44.03H42.4L44.422,40.9ZM14.864,35.614H8.312V49.138H15.3V43.79l4.173,4.172,4.172-4.172v5.348h6.986V35.614H24.076L19.47,40.22Z" fill="#d6e1ea"/>
      </g>
    </g>
  </g>
</svg>
