<svg xmlns="http://www.w3.org/2000/svg" xmlns:xlink="http://www.w3.org/1999/xlink" width="213.5" height="119" viewBox="0 0 213.5 119">
  <defs>
    <clipPath id="clip-path">
      <rect id="Rectangle_29" data-name="Rectangle 29" width="57.922" height="56.829" fill="#d6e1ea"/>
    </clipPath>
  </defs>
  <g id="Group_69" data-name="Group 69" transform="translate(-970 -998)">
    <g id="Rectangle_3660" data-name="Rectangle 3660" transform="translate(970 998)" fill="#fff" stroke="#e8ecee" stroke-width="1">
      <rect width="213.5" height="119" rx="10" stroke="none"/>
      <rect x="0.5" y="0.5" width="212.5" height="118" rx="9.5" fill="none"/>
    </g>
    <g id="Component_13_2" data-name="Component 13 – 2" transform="translate(1048 1029)">
      <g id="Group_57" data-name="Group 57" clip-path="url(#clip-path)">
        <path id="Path_57" data-name="Path 57" d="M297.111,79.541c-1.875,0-3.4,1.148-3.4,2.56s1.526,2.56,3.4,2.56c1.916,0,3.475-1.148,3.475-2.56s-1.558-2.56-3.475-2.56m0,4.288c-.663,0-1.165-.742-1.165-1.726,0-1.045.492-1.8,1.165-1.8s1.168.8,1.165,1.8c0,.934-.535,1.726-1.165,1.726m-25.755-4.288c-1.875,0-3.4,1.148-3.4,2.56s1.528,2.56,3.4,2.56c1.916,0,3.475-1.148,3.475-2.56s-1.558-2.56-3.475-2.56m0,4.288c-.665,0-1.165-.742-1.165-1.726,0-1.045.49-1.8,1.165-1.8.647,0,1.167.8,1.165,1.8,0,.934-.535,1.726-1.165,1.726m18.2-3.416h.844l-1.478,2.881-1.688-2.881h1.2v-.632h-4.78v.632h1.124l2.178,4.077h2.6l2.18-4.077h1.122v-.632h-3.3Zm-26.033.06h.863l-1.444,2.7-1.578-2.7h1.152v-.758h-4.9v.751h1.148l2.158,4.046.015.03h2.672l.017-.03,2.158-4.046h1.148v-.751h-3.408Zm.727-.06h0Zm-1.284,2.853.606-1.133-.6,1.15Zm-1.109-1.824-.6-.991h.017ZM281.2,83.717h-1.2v-3.3h1.127v-.632H276.7v.632h1.127v3.3H276.7v.773h6.679V82.306h-.7a1.474,1.474,0,0,1-1.476,1.411M297.937,60.96l-2.9,2.909a24.709,24.709,0,0,1,3.885,4.085l2.92-2.913,1.234-1.234a30.092,30.092,0,0,1,3.352,5h.749V55.573H293.956v.749a30.271,30.271,0,0,1,5.151,3.475Z" transform="translate(-249.991 -54.35)" fill="#d6e1ea"/>
        <path id="Path_58" data-name="Path 58" d="M52.533,12.8l-2.967,2.967a24.581,24.581,0,1,1-7.122-7.435l2.942-2.944A28.662,28.662,0,1,0,52.533,12.8" transform="translate(0.64 -0.288)" fill="#d6e1ea"/>
      </g>
    </g>
  </g>
</svg>
